<?xml version="1.0" encoding="UTF-8"?>
<svg xmlns="http://www.w3.org/2000/svg" viewBox="0 0 466.6 466.6">
  <defs>
    <style>
      .cls-1 {
        isolation: isolate;
      }

      .cls-2 {
        fill: #023f04;
      }
    </style>
  </defs>
  <g id="Artboard_1" class="cls-1">
    <g>
      <path class="cls-2" d="M384.63,245.73c-6.8-24.8-17.2-42.8-36-50.4v-1.2c23.2-8.4,47.6-32,47.6-66.4,0-24.8-8.8-43.6-24.8-56.4-19.2-15.2-47.2-21.2-87.2-21.2-19.31,0-37.47.86-53.16,2.22-14.63-1.15-31.19-1.85-48.7-1.85-40,0-68,6-87.2,21.2-16,12.8-24.8,31.6-24.8,56.4,0,34.4,24.4,58,47.6,66.4v1.2c-18.8,7.6-29.2,25.6-36,50.4-8.4,30.4-16.8,65.6-22,76h62.4c4.4-7.6,10.8-29.6,18.8-62.8,7.2-33.6,18.8-42.8,43.6-43.2h18.26v96h0v37h60.55v-37h0v-96.37h18.26c24.8.4,36.4,9.6,43.6,43.2,8,33.2,14.4,55.2,18.8,62.8h62.4c-5.2-10.4-13.6-45.6-22-76ZM179.17,172.1c-30.4,0-48.4-15.2-48.4-38.8,0-24.8,16.8-37.2,44.8-37.6,14.65,0,23.02,1.18,27.46,1.98v74.42h-23.86ZM287.43,171.73h-23.86v-74.42c4.44-.8,12.81-1.98,27.46-1.98,28,.4,44.8,12.8,44.8,37.6s-18,38.8-48.4,38.8Z"/>
      <g id="Rectangle_1">
        <path class="cls-2" d="M52.8,334.77v7c0,17.67,14.33,32,32,32h297c17.67,0,32-14.33,32-32v-7H52.8Z"/>
      </g>
    </g>
    <g id="Ellipse_1">
      <path class="cls-2" d="M233.3,466.6c-62.32,0-120.91-24.27-164.97-68.33C24.27,354.21,0,295.62,0,233.3S24.27,112.4,68.33,68.33C112.4,24.27,170.99,0,233.3,0s120.9,24.27,164.97,68.33c44.06,44.06,68.33,102.65,68.33,164.97s-24.27,120.91-68.33,164.97c-44.07,44.06-102.65,68.33-164.97,68.33ZM233.3,10.2C110.28,10.2,10.2,110.28,10.2,233.3s100.08,223.1,223.1,223.1,223.1-100.08,223.1-223.1S356.32,10.2,233.3,10.2Z"/>
    </g>
    <g id="Group_2">
      <g id="Ellipse_2">
        <circle class="cls-2" cx="187" cy="412.09" r="15" transform="translate(-265.29 427.16) rotate(-67.5)"/>
      </g>
      <g id="Ellipse_3">
        <circle class="cls-2" cx="279" cy="412.09" r="15" transform="translate(-62.41 50.01) rotate(-9.22)"/>
      </g>
      <g id="Ellipse_4">
        <circle class="cls-2" cx="234" cy="412.09" r="15"/>
      </g>
    </g>
  </g>
</svg>