<svg version="1.2" xmlns="http://www.w3.org/2000/svg" viewBox="0 0 467 467" width="467" height="467">
	<title>Artboard 3-svg</title>
	<style>
		.s0 { fill: #ffffff } 
	</style>
	<g id="Artboard_1">
		<g>
			<path fill-rule="evenodd" class="s0" d="m406.6 321.7h-62.4c-4.4-7.6-10.8-29.6-18.8-62.8-7.2-33.6-18.8-42.8-43.6-43.2h-18.2v133.4h-60.6v-133h-18.2c-24.8 0.4-36.4 9.6-43.6 43.2-8 33.2-14.4 55.2-18.8 62.8h-62.4c5.2-10.4 13.6-45.6 22-76 6.8-24.8 17.2-42.8 36-50.4v-1.2c-23.2-8.4-47.6-32-47.6-66.4 0-24.8 8.8-43.6 24.8-56.4 19.2-15.2 47.2-21.2 87.2-21.2 17.5 0 34 0.7 48.7 1.8 15.7-1.3 33.8-2.2 53.1-2.2 40 0 68 6 87.2 21.2 16 12.8 24.8 31.6 24.8 56.4 0 34.4-24.4 58-47.6 66.4v1.2c18.8 7.6 29.2 25.6 36 50.4 8.4 30.4 16.8 65.6 22 76zm-203.6-149.6v-74.4c-4.4-0.8-12.8-2-27.4-2-28 0.4-44.8 12.8-44.8 37.6 0 23.6 18 38.8 48.4 38.8zm132.8-39.2c0-24.8-16.8-37.2-44.8-37.6-14.7 0-23.1 1.2-27.5 2v74.4h23.9c30.4 0 48.4-14 48.4-38.8z"/>
			<g id="Rectangle_1">
				<path class="s0" d="m52.8 334.8v7c0 17.6 14.3 32 32 32h297c17.7 0 32-14.4 32-32v-7z"/>
			</g>
		</g>
		<g id="Ellipse_1">
			<path fill-rule="evenodd" class="s0" d="m233.3 466.6c-62.3 0-120.9-24.3-165-68.3-44-44.1-68.3-102.7-68.3-165 0-62.3 24.3-120.9 68.3-165 44.1-44 102.7-68.3 165-68.3 62.3 0 120.9 24.3 165 68.3 44 44.1 68.3 102.7 68.3 165 0 62.3-24.3 120.9-68.3 165-44.1 44-102.7 68.3-165 68.3zm0-456.4c-123 0-223.1 100.1-223.1 223.1 0 123 100.1 223.1 223.1 223.1 123 0 223.1-100.1 223.1-223.1 0-123-100.1-223.1-223.1-223.1z"/>
		</g>
		<g id="Group_2">
			<g id="Ellipse_2">
				<path class="s0" d="m200.9 417.8c-3.2 7.7-12 11.3-19.6 8.2-7.7-3.2-11.3-12-8.2-19.6 3.2-7.7 12-11.3 19.6-8.2 7.7 3.2 11.3 12 8.2 19.6z"/>
			</g>
			<g id="Ellipse_3">
				<path class="s0" d="m281.4 426.9c-8.2 1.3-15.9-4.2-17.2-12.4-1.3-8.2 4.2-15.9 12.4-17.2 8.2-1.4 15.9 4.2 17.2 12.4 1.3 8.2-4.2 15.9-12.4 17.2z"/>
			</g>
			<g id="Ellipse_4">
				<path class="s0" d="m234 427.1c-8.3 0-15-6.7-15-15 0-8.3 6.7-15 15-15 8.3 0 15 6.7 15 15 0 8.3-6.7 15-15 15z"/>
			</g>
		</g>
	</g>
</svg>